<?xml version="1.0" encoding="utf-8"?>
<!-- Generator: Adobe Illustrator 17.1.0, SVG Export Plug-In . SVG Version: 6.00 Build 0)  -->
<!DOCTYPE svg PUBLIC "-//W3C//DTD SVG 1.1//EN" "http://www.w3.org/Graphics/SVG/1.1/DTD/svg11.dtd">
<svg version="1.1" id="Layer_1" xmlns="http://www.w3.org/2000/svg" xmlns:xlink="http://www.w3.org/1999/xlink" x="0px" y="0px"
	 viewBox="0 0 2300 1500" enable-background="new 0 0 2300 1500" xml:space="preserve">
<rect x="-0.9" fill="#FFFFFF" width="2300" height="1500"/>
<g>
	<linearGradient id="SVGID_1_" gradientUnits="userSpaceOnUse" x1="1379.5822" y1="587.2654" x2="865.45" y2="850.5258">
		<stop  offset="0" style="stop-color:#2D97F3"/>
		<stop  offset="1" style="stop-color:#13E2A7"/>
	</linearGradient>
	<path fill="url(#SVGID_1_)" d="M970.6,906.3l9.2-12.3c-0.4-0.4-0.8-0.9-1.2-1.4c-6.6-8.5-4.7-18.8-4.2-20.9
		c3.8-20,36.2-39,39.8-41.1c7.4-4.1,17.8-11.2,26.8-17.8l145-192.3c-7.7-0.5-14.9-3.1-21-7.8l-0.3-0.2c-6.4-4.8-10.8-11.2-13.3-18.2
		L936,880.2L970.6,906.3z"/>
	<linearGradient id="SVGID_2_" gradientUnits="userSpaceOnUse" x1="1323.9208" y1="478.562" x2="809.7886" y2="741.8224">
		<stop  offset="0" style="stop-color:#2D97F3"/>
		<stop  offset="1" style="stop-color:#13E2A7"/>
	</linearGradient>
	<path fill="url(#SVGID_2_)" d="M1175.1,598.7l0.3,0.3c9.5,7.1,22.9,5.2,30.1-4.2l82.6-109.6c7.1-9.5,5.2-22.9-4.2-30.1l-0.3-0.3
		c-9.5-7.1-22.9-5.2-30.1,4.2l-82.6,109.6C1163.7,578.1,1165.6,591.6,1175.1,598.7z"/>
	<linearGradient id="SVGID_3_" gradientUnits="userSpaceOnUse" x1="1458.9265" y1="742.2202" x2="944.7944" y2="1005.4807">
		<stop  offset="0" style="stop-color:#2D97F3"/>
		<stop  offset="1" style="stop-color:#13E2A7"/>
	</linearGradient>
	<path fill="url(#SVGID_3_)" d="M966.1,912.1l-34.4-25.6l-20.1,55.7c-0.2,0.7-0.2,1.4,0,1.9l-87.2-2.8v16.5h459.3l0,0l-365.2-13.7
		L966.1,912.1z"/>
	<linearGradient id="SVGID_4_" gradientUnits="userSpaceOnUse" x1="1363.2767" y1="555.4218" x2="849.1446" y2="818.6823">
		<stop  offset="0" style="stop-color:#2D97F3"/>
		<stop  offset="1" style="stop-color:#13E2A7"/>
	</linearGradient>
	<path fill="url(#SVGID_4_)" d="M945.1,854.9l163.8-217.5c-37.3-29.5-60.9-4.2-60.9-4.2c-21.7,18.2-26.4,36.1-23.6,34.9
		c-21,46.7-43.3,60.1-43.3,60.1c-12.3,5.8-15.7,18.4-15.7,18.4c-11.3,30.9-42.3,74.4-42.3,74.4c-4.1,6.5-5.2,12.5-5.5,16.5
		c-0.1,2.8,0.2,5.6,1.3,8.1C925.1,860.8,945.1,854.9,945.1,854.9z"/>
	<linearGradient id="SVGID_5_" gradientUnits="userSpaceOnUse" x1="1417.8998" y1="662.0974" x2="903.7676" y2="925.3578">
		<stop  offset="0" style="stop-color:#2D97F3"/>
		<stop  offset="1" style="stop-color:#13E2A7"/>
	</linearGradient>
	<path fill="url(#SVGID_5_)" d="M1269.5,718.7L1162.3,665l-70.2,92.4c0,0-1.1,27.3-27.3,46.8c0,0-30.3,23.6-47,32.8
		c0,0-33.2,19-36.4,36.4c0,0-6.3,24.8,27.7,21.9c0,0,15.9-3.1,40.9-16.6c0,0,32.9-13,55.3-18.2c1.2-0.3,2.4-0.5,3.6-0.7l25.4-3.8
		c2.3-0.3,4.6-0.8,6.9-1.4c6.8-1.9,22.4-6.3,36.9-11.7c1.1-0.4,2.3-0.7,3.5-0.7l146.3-6.1l-12.3-117.4H1269.5z"/>
	<linearGradient id="SVGID_6_" gradientUnits="userSpaceOnUse" x1="1460.7759" y1="745.8318" x2="946.6437" y2="1009.0922">
		<stop  offset="0" style="stop-color:#2D97F3"/>
		<stop  offset="1" style="stop-color:#13E2A7"/>
	</linearGradient>
	<path fill="url(#SVGID_6_)" d="M1454.1,669.2l-116,20.9c-5.7,1-9.6,6.2-9.1,12l14.7,149.2c0.7,7.5,7.3,13.2,14.9,12.8l115.4-6
		L1454.1,669.2z M1417.3,720.9c-6.5,0-11.7-5.3-11.7-11.7c0-6.5,5.3-11.7,11.7-11.7s11.7,5.3,11.7,11.7
		C1429,715.6,1423.7,720.9,1417.3,720.9z"/>
</g>
</svg>
